<?xml version="1.0" standalone="no"?>
<!DOCTYPE svg PUBLIC "-//W3C//DTD SVG 1.1//EN"
  "http://www.w3.org/Graphics/SVG/1.1/DTD/svg11.dtd">
<svg width="195.1999969482422mm" height="57.999999999999986mm" viewBox="-80.19999694824219 -67.99999999999999 195.1999969482422 57.999999999999986" xmlns="http://www.w3.org/2000/svg" version="1.1">
	<title>svgOutput</title>
	<desc>made with tinkercad</desc>
<path d="M 59.922000885009766 -10.999999999999998 L 43.187583923339844 -32.76800155639648 L 42.12900161743164 -34.145000457763665 L 32.768001556396484 -34.145000457763665 L 30.541000366210938 -34.145000457763665 L 30.541000366210938 -32.76800155639648 L 30.541000366210938 -10.999999999999998 L 23.051000595092773 -10.999999999999998 L 21.121000289916992 -10.999999999999998 L 21.121000289916992 -16.683721542358395 L 21.121000289916992 -19.00296020507812 L 21.121000289916992 -21.153429031372067 L 21.121000289916992 -23.195638656616207 L 21.121000289916992 -25.09819602966308 L 21.121000289916992 -26.77966880798339 L 21.121000289916992 -28.054056167602532 L 21.121000289916992 -28.554187774658196 L 20.583999633789062 -27.08900070190429 L 18.70599937438965 -23.714000701904293 L 16.36400032043457 -20.740999221801754 L 13.555999755859375 -18.169000625610348 L 10.232999801635742 -15.96100044250488 L 6.446000099182129 -14.154999732971188 L 4.471010684967041 -13.5025520324707 L 2.193000078201294 -12.749999999999996 L 1.1497809879212374e-14 -12.29423904418945 L -2.4839999675750732 -11.777999877929686 L -7.543000221252441 -11.194000244140623 L -12.984000205993652 -10.999999999999998 L -29.61524200439453 -10.999999999999998 L -31.52400016784668 -10.999999999999998 L -31.52400016784668 -15.693070411682125 L -31.52400016784668 -17.04000091552734 L -31.52400016784668 -34.65299987792968 L -31.52400016784668 -60.664001464843736 L -38.45600128173828 -60.664001464843736 L -63.30799865722656 -60.664001464843736 L -63.30799865722656 -60.67699813842772 L -69.77999877929688 -60.67699813842772 L -69.77999877929688 -40.976001739501946 L -63.30799865722656 -40.976001739501946 L -38.45600128173828 -40.976001739501946 L -38.45600128173828 -34.65299987792968 L -69.77999877929688 -34.65299987792968 L -69.77999877929688 -10.999999999999998 L -79.19999694824219 -10.999999999999998 L -79.19999694824219 -34.65299987792968 L -79.19999694824219 -40.976001739501946 L -79.19999694824219 -66.99999999999999 L -69.77999877929688 -66.99999999999999 L -38.45600128173828 -66.99999999999999 L -36.512001037597656 -66.99999999999999 L -31.52400016784668 -66.99999999999999 L -10.96500015258789 -66.99999999999999 L -5.947999954223633 -66.7990036010742 L -1.2630000114440918 -66.19699859619139 L 1.6057268381118774 -65.53600311279295 L 3.0899999141693115 -65.19400024414061 L 7.068999767303467 -63.83900070190428 L 10.631999969482422 -62.10800170898436 L 12.768996238708496 -60.67699813842772 L 13.779999732971191 -59.999999999999986 L 16.496999740600586 -57.48500061035155 L 18.763999938964844 -54.60599899291991 L 20.088783264160156 -52.24541091918944 L 20.583999633789062 -51.36299896240233 L 21.121000289916992 -49.951904296874986 L 21.121000289916992 -60.67699813842772 L 21.121000289916992 -65.53600311279295 L 21.121000289916992 -66.99999999999999 L 23.051000595092773 -66.99999999999999 L 39.138999938964844 -66.99999999999999 L 47.32899856567383 -66.56099700927733 L 52.488243103027344 -65.53600311279295 L 53.95800018310547 -65.24400329589842 L 59.025001525878906 -63.048000335693345 L 61.800899505615234 -60.67699813842772 L 62.63800048828125 -59.962001800537095 L 64.80599975585938 -55.97299957275389 L 65.08109283447266 -54.1116485595703 L 65.45706939697266 -51.567707061767564 L 65.52899932861328 -51.08100128173827 L 65.401123046875 -49.15200042724608 L 65.38800048828125 -48.953998565673814 L 64.96399688720703 -47.015998840332024 L 64.25800323486328 -45.265998840332024 L 63.327999114990234 -43.68500137329101 L 62.23099899291992 -42.25500106811523 L 60.96900177001953 -40.976001739501946 L 60.94792938232422 -40.95999908447265 L 59.51499938964844 -39.87200164794921 L 57.94499969482422 -38.89300155639648 L 56.25899887084961 -38.04000091552734 L 54.49800109863281 -37.29399871826171 L 52.70399856567383 -36.634998321533196 L 50.875999450683594 -36.06499862670898 L 52.013092041015625 -34.65299987792968 L 53.53109359741211 -32.76800155639648 L 60.28799819946289 -24.377519607543938 L 66.3113021850586 -16.898000717163082 L 71.06099700927734 -16.898000717163082 L 71.31999969482422 -16.898000717163082 L 71.31999969482422 -16.958000183105465 L 81.91999816894531 -16.958000183105465 L 85.62544250488281 -16.958000183105465 L 87.0728530883789 -16.958000183105465 L 87.7770004272461 -16.9109992980957 L 88.37210845947266 -16.898000717163082 L 89.86494445800781 -16.898000717163082 L 90.19999694824219 -16.9155158996582 L 94.20700073242188 -17.124999999999996 L 98.08499908447266 -17.874999999999996 L 98.30400085449219 -17.967079162597653 L 101.05799865722656 -19.124999999999996 L 103.11799621582031 -20.870000839233395 L 104.35399627685547 -23.030000686645504 L 104.60145568847656 -24.57600021362304 L 104.76599884033203 -25.604000091552727 L 104.69300079345703 -26.896999359130852 L 104.4749984741211 -28.068000793457024 L 104.11199951171875 -29.11800003051757 L 103.50599670410156 -30.08099937438964 L 102.65799713134766 -30.99699974060058 L 101.56700134277344 -31.86300086975097 L 100.22599792480469 -32.69200134277343 L 100.07513427734375 -32.76800155639648 L 98.6259994506836 -33.498001098632805 L 98.30400085449219 -33.63317871093749 L 96.76799774169922 -34.27799987792968 L 95.74420166015625 -34.65299987792968 L 95.09545135498047 -34.89062499999999 L 94.60299682617188 -35.070999145507805 L 92.08300018310547 -35.91299819946288 L 89.20700073242188 -36.80400085449218 L 86.4280014038086 -37.70700073242187 L 83.90699768066406 -38.658000946044915 L 81.91999816894531 -39.53730392456054 L 81.6449966430664 -39.65900039672851 L 79.63300323486328 -40.756999969482415 L 77.86399841308594 -41.92800140380859 L 76.33699798583984 -43.17300033569335 L 75.0530014038086 -44.51499938964843 L 74.01100158691406 -45.97900009155273 L 73.21099853515625 -47.56499862670898 L 72.72659301757812 -49.15200042724608 L 72.68599700927734 -49.284999847412095 L 72.37100219726562 -51.15200042724608 L 72.26599884033203 -53.16500091552733 L 72.43499755859375 -55.25099945068358 L 72.94400024414062 -57.19100189208983 L 73.79199981689453 -58.984001159667955 L 74.99600219726562 -60.61299896240233 L 75.06146240234375 -60.67699813842772 L 76.4749984741211 -62.05899810791014 L 77.24887084960938 -62.61656188964842 L 78.22799682617188 -63.32199859619139 L 79.09121704101562 -63.78894424438475 L 80.27999877929688 -64.43199920654295 L 80.72327423095703 -64.61004638671874 L 81.91999816894531 -65.09073638916014 L 82.55799865722656 -65.3470001220703 L 83.21530151367188 -65.53600311279295 L 85.06199645996094 -66.06700134277342 L 87.81700134277344 -66.58499908447264 L 90.75 -66.89600372314452 L 93.86000061035156 -66.99999999999999 L 97.61599731445312 -66.90200042724608 L 101.13099670410156 -66.61000061035155 L 104.40299987792969 -66.1220016479492 L 107.31068420410156 -65.53600311279295 L 107.4000015258789 -65.5179977416992 L 110.18699645996094 -64.80400085449217 L 112.76399993896484 -63.979999542236314 L 110.90673828125 -60.67699813842772 L 110.25116729736328 -59.51111984252928 L 109.88971710205078 -58.86830902099608 L 109.64849853515625 -58.439323425292955 L 109.5463638305664 -58.25767517089842 L 109.49199676513672 -58.16099929809569 L 107.26200103759766 -58.861999511718736 L 104.83899688720703 -59.50299835205077 L 102.22100067138672 -60.08200073242186 L 99.52300262451172 -60.508998870849595 L 98.30400085449219 -60.62238693237303 L 97.71683502197266 -60.67699813842772 L 96.76000213623047 -60.76599884033202 L 93.93299865722656 -60.85100173950194 L 91.1760025024414 -60.67699813842772 L 90.25700378417969 -60.61899948120116 L 87.17900085449219 -59.92399978637694 L 84.6989974975586 -58.76499938964842 L 82.88099670410156 -57.20299911499022 L 81.91999816894531 -55.52675628662108 L 81.79000091552734 -55.29999923706053 L 81.427001953125 -53.05500030517577 L 81.50800323486328 -51.72499847412108 L 81.75 -50.51699829101561 L 81.91999816894531 -50.06002044677733 L 82.15399932861328 -49.43099975585936 L 82.3156967163086 -49.15200042724608 L 82.74400329589844 -48.412998199462876 L 83.54299926757812 -47.47900009155273 L 84.5530014038086 -46.63100051879882 L 85.83799743652344 -45.807998657226555 L 87.36499786376953 -45.02099990844726 L 89.13400268554688 -44.27099990844726 L 91.12899780273438 -43.520000457763665 L 93.43199920654297 -42.73300170898437 L 96.04100036621094 -41.9099998474121 L 98.30400085449219 -41.19902038574218 L 98.87699890136719 -41.01900100708007 L 101.47000122070312 -40.10400009155273 L 103.82099914550781 -39.16500091552734 L 105.92900085449219 -38.17599868774413 L 107.7959976196289 -37.11500167846679 L 109.41899871826172 -35.97999954223632 L 110.8010025024414 -34.717998504638665 L 110.85491943359375 -34.65299987792968 L 111.94000244140625 -33.34500122070312 L 112.28923797607422 -32.76800155639648 L 112.83699798583984 -31.86300086975097 L 113.48300170898438 -30.190999984741204 L 113.87100219726562 -28.325000762939446 L 114 -26.263000488281243 L 113.9587631225586 -25.77412033081054 L 113.85770416259766 -24.57600021362304 L 113.80599975585938 -23.962999343872067 L 113.2239990234375 -21.822000503540036 L 112.25499725341797 -19.839000701904293 L 110.97100067138672 -18.034000396728512 L 109.34700012207031 -16.423000335693356 L 109.29289245605469 -16.38400077819824 L 107.38400268554688 -15.008000373840328 L 105.13800048828125 -13.793999671936032 L 102.56900024414062 -12.78699970245361 L 99.677001953125 -11.987999916076658 L 98.30400085449219 -11.747560501098631 L 96.54199981689453 -11.439000129699705 L 93.14900207519531 -11.109999656677244 L 90.19999694824219 -11.021174430847166 L 90.19999694824219 -10.999999999999998 L 89.49700164794922 -10.999999999999998 L 87.06915283203125 -10.999999999999998 L 85.13558959960938 -10.999999999999998 L 81.91999816894531 -10.999999999999998 L 81.08601379394531 -10.999999999999998 L 78.89171600341797 -10.999999999999998 L 71.31999969482422 -10.999999999999998 L 71.06099700927734 -10.999999999999998 L 59.922000885009766 -10.999999999999998 M 1.7039999961853027 -26.87199974060058 L 0 -25.328227996826165 L -0.1889999955892563 -25.156999588012688 L -2.430999994277954 -23.684000015258786 L -4.985000133514404 -22.47900009155273 L -6.818150043487549 -21.87989807128906 L -7.848999977111816 -21.54299926757812 L -10.994000434875488 -20.896999359130856 L -12.1653413772583 -20.763093948364254 L -14.387999534606934 -20.50900077819824 L -18.027999877929688 -20.381000518798825 L -19.029495239257812 -20.381000518798825 L -22.104999542236328 -20.381000518798825 L -22.104999542236328 -17.04000091552734 L -13.956000328063965 -17.04000091552734 L -5.764999866485596 -17.66799926757812 L 0 -19.27976608276367 L 0.9629999995231628 -19.54899978637695 L 2.3603672981262207 -20.381000518798825 L 6.199999809265137 -22.66713714599609 L 6.230000019073486 -22.68499946594238 L 10.008999824523926 -27.013000488281243 L 12.277000427246094 -32.546001434326165 L 12.301916122436523 -32.76800155639648 L 12.513474464416504 -34.65299987792968 L 13.032999992370605 -39.28200149536132 L 12.850000381469727 -42.83900070190429 L 12.302000045776367 -46.05599975585937 L 11.387999534606934 -48.935001373291 L 11.276482582092285 -49.15200042724608 L 10.076000213623047 -51.48799896240233 L 8.430999755859375 -53.728000640869126 L 6.453999996185303 -55.65299987792967 L 6.199999809265137 -55.834316253662095 L 4.185999870300293 -57.271999359130845 L 3.4967424869537354 -57.61899948120116 L 1.5700000524520874 -58.58900070190428 L 0 -59.12680053710936 L -1.3960000276565552 -59.604999542236314 L -4.626999855041504 -60.32600021362303 L -7.475531101226807 -60.67699813842772 L -8.140999794006348 -60.758998870849595 L -11.937000274658203 -60.90299987792967 L -22.104999542236328 -60.90299987792967 L -22.104999542236328 -60.67699813842772 L -22.104999542236328 -57.61899948120116 L -16.68400001525879 -57.61899948120116 L -16.384000778198242 -57.60712432861327 L -13.324000358581543 -57.48600006103514 L -10.175000190734863 -57.085998535156236 L -7.248000144958496 -56.41799926757811 L -4.567999839782715 -55.51599884033202 L -2.1640000343322754 -54.36100006103514 L -0.039000000804662704 -52.953998565673814 L 0 -52.9182777404785 L 1.7929999828338623 -51.276000976562486 L 3.321000099182129 -49.35800170898436 L 3.437800168991089 -49.15200042724608 L 4.544000148773193 -47.20100021362304 L 5.465000152587891 -44.80899810791015 L 6.015999794006348 -42.1860008239746 L 6.199999809265137 -39.33499908447265 L 6.017000198364258 -36.32699966430663 L 5.680492877960205 -34.65299987792968 L 5.465000152587891 -33.581001281738274 L 5.163561820983887 -32.76800155639648 L 4.544000148773193 -31.097000122070305 L 3.2820000648498535 -28.853000640869134 L 1.7039999961853027 -26.87199974060058 M -20.06599998474121 -29.474000930786126 L -22.104999542236328 -29.474000930786126 L -22.104999542236328 -24.731000900268548 L -18.694000244140625 -24.731000900268548 L -13.286999702453613 -25.13999938964843 L -8.875 -26.36100006103515 L -5.433000087738037 -28.388000488281243 L -4.47412633895874 -29.474000930786126 L -2.9590001106262207 -31.19000053405761 L -2.3048999309539795 -32.76800155639648 L -1.5235446691513062 -34.65299987792968 L -1.468000054359436 -34.78699874877929 L -0.968999981880188 -39.18999862670898 L -1.0889999866485596 -41.511001586914055 L -1.4509999752044678 -43.61100006103515 L -2.052000045776367 -45.485000610351555 L -2.9130001068115234 -47.14199829101562 L -3.990999937057495 -48.591999053955064 L -4.572140693664551 -49.15200042724608 L -5.2829999923706055 -49.837001800537095 L -6.763000011444092 -50.881000518798814 L -8.470000267028809 -51.73099899291991 L -10.409000396728516 -52.38899993896483 L -12.527999877929688 -52.85599899291991 L -14.838000297546387 -53.138000488281236 L -16.384000778198242 -53.19599151611327 L -17.3439998626709 -53.2319984436035 L -22.104999542236328 -53.2319984436035 L -22.104999542236328 -48.526000976562486 L -21.69499969482422 -48.526000976562486 L -19.441999435424805 -48.526000976562486 L -17.79599952697754 -48.45999908447264 L -16.384000778198242 -48.279270172119126 L -16.209999084472656 -48.25699996948241 L -14.722999572753906 -47.91400146484374 L -13.347000122070312 -47.44499969482421 L -12.288000106811523 -46.93074798583984 L -12.097000122070312 -46.838001251220696 L -10.986000061035156 -46.094001770019524 L -10.031999588012695 -45.21099853515624 L -9.246999740600586 -44.21400070190429 L -8.626999855041504 -43.10900115966796 L -8.192000389099121 -41.96653747558593 L -8.163999557495117 -41.89300155639648 L -7.97033166885376 -40.95999908447265 L -7.889999866485596 -40.57300186157226 L -7.798999786376953 -39.15700149536132 L -7.888999938964844 -37.669998168945305 L -8.161999702453613 -36.294998168945305 L -8.62399959564209 -35.035999298095696 L -8.836962699890137 -34.65299987792968 L -9.263999938964844 -33.884998321533196 L -10.074999809265137 -32.855998992919915 L -10.171106338500977 -32.76800155639648 L -11.059000015258789 -31.954999923706048 L -12.22599983215332 -31.180000305175774 L -13.548999786376953 -30.548000335693352 L -15.020999908447266 -30.062000274658196 L -16.384000778198242 -29.779291152954094 L -16.61199951171875 -29.73200035095214 L -18.301000595092773 -29.537000656127923 L -20.06599998474121 -29.474000930786126 M -15.083000183105469 -34.60400009155273 L -15.040185928344727 -34.65299987792968 L -14.121000289916992 -35.70500183105468 L -13.512999534606934 -37.18899917602538 L -13.29800033569336 -39.10800170898437 L -13.348999977111816 -40.10499954223632 L -13.495137214660645 -40.95999908447265 L -13.503000259399414 -41.00600051879882 L -13.75 -41.7849998474121 L -14.093999862670898 -42.45500183105468 L -14.515000343322754 -43.028999328613274 L -15.010000228881836 -43.509998321533196 L -15.565999984741211 -43.90700149536132 L -16.20400047302246 -44.22800064086913 L -16.384000778198242 -44.289688110351555 L -16.951000213623047 -44.48400115966796 L -17.79199981689453 -44.67200088500976 L -18.73200035095215 -44.78799819946288 L -19.80299949645996 -44.82899856567382 L -21.69499969482422 -44.82899856567382 L -21.69499969482422 -34.65299987792968 L -21.69499969482422 -33.153999328613274 L -20.454999923706055 -33.153999328613274 L -18.148000717163086 -33.331001281738274 L -16.400999069213867 -33.81900024414062 L -16.384000778198242 -33.82912445068359 L -15.083000183105469 -34.60400009155273 M 48.11000061035156 -59.88700103759764 L 46.090999603271484 -60.33900070190428 L 43.82400131225586 -60.65200042724608 L 43.49106216430664 -60.67699813842772 L 41.30699920654297 -60.84099960327147 L 38.54100036621094 -60.90299987792967 L 32.768001556396484 -60.90299987792967 L 30.541000366210938 -60.90299987792967 L 30.541000366210938 -60.67699813842772 L 30.541000366210938 -40.18500137329101 L 32.768001556396484 -40.18500137329101 L 37.48567581176758 -40.18500137329101 L 38.76499938964844 -40.18500137329101 L 41.60599899291992 -40.261001586914055 L 44.14799880981445 -40.48699951171874 L 46.38999938964844 -40.86299896240234 L 48.4010009765625 -41.3839988708496 L 49.152000427246094 -41.667346954345696 L 50.14500045776367 -42.041999816894524 L 51.624000549316406 -42.83900070190429 L 52.845001220703125 -43.8110008239746 L 53.81700134277344 -44.921001434326165 L 54.53900146484375 -46.16899871826171 L 55.07899856567383 -47.55599975585937 L 55.40299987792969 -49.08000183105467 L 55.40768051147461 -49.15200042724608 L 55.51100158691406 -50.74200057983397 L 55.39500045776367 -52.49200057983397 L 55.04600143432617 -54.05400085449217 L 54.46500015258789 -55.42699813842772 L 53.659000396728516 -56.624999999999986 L 52.637001037597656 -57.659999847412095 L 51.39899826049805 -58.532001495361314 L 49.87900161743164 -59.284999847412095 L 49.152000427246094 -59.532402038574205 L 48.11000061035156 -59.88700103759764 z" fill="none" stroke="rgb(0,0,0)" stroke-width="0.55mm" />
</svg>