<?xml version="1.0" standalone="no"?>
<!DOCTYPE svg PUBLIC "-//W3C//DTD SVG 1.1//EN"
  "http://www.w3.org/Graphics/SVG/1.1/DTD/svg11.dtd">
<svg width="195.1999969482422mm" height="57.999999999999986mm" viewBox="-139.6999969482422 -70.99999999999999 195.1999969482422 57.999999999999986" xmlns="http://www.w3.org/2000/svg" version="1.1">
	<title>svgOutput</title>
	<desc>made with tinkercad</desc>
<path d="M 0.7490000128746033 -13.999999999999996 L -13.71412181854248 -32.76800155639648 L -17.04400062561035 -37.08900070190429 L -28.631999969482422 -37.08900070190429 L -28.631999969482422 -32.76800155639648 L -28.631999969482422 -13.999999999999996 L -36.44900131225586 -13.999999999999996 L -38.05099868774414 -13.999999999999996 L -38.05099868774414 -17.54077339172363 L -38.05099868774414 -19.75188827514648 L -38.05099868774414 -22.1113166809082 L -38.05099868774414 -24.309850692749016 L -38.05099868774414 -26.413581848144524 L -38.05099868774414 -28.398628234863274 L -38.05099868774414 -30.196041107177727 L -38.05099868774414 -31.64351272583007 L -38.05099868774414 -32.44912338256835 L -38.91600036621094 -30.08900070190429 L -40.79399871826172 -26.71400070190429 L -43.13600158691406 -23.740999221801754 L -45.944000244140625 -21.169000625610348 L -49.266998291015625 -18.96100044250488 L -53.05400085449219 -17.155000686645504 L -55.028987884521484 -16.5025520324707 L -57.30699920654297 -15.749999999999996 L -61.98400115966797 -14.777999877929684 L -62.88420104980469 -14.674082756042477 L -65.53600311279297 -14.367964744567868 L -67.04299926757812 -14.194000244140621 L -72.48400115966797 -13.999999999999996 L -91.02400207519531 -13.999999999999996 L -91.02400207519531 -18.69306945800781 L -91.02400207519531 -20.04000091552734 L -91.02400207519531 -37.65299987792968 L -91.02400207519531 -63.664001464843736 L -97.95600128173828 -63.664001464843736 L -122.80799865722656 -63.664001464843736 L -122.80799865722656 -63.67699813842772 L -129.27999877929688 -63.67699813842772 L -129.27999877929688 -43.976001739501946 L -122.80799865722656 -43.976001739501946 L -97.95600128173828 -43.976001739501946 L -97.95600128173828 -37.65299987792968 L -129.27999877929688 -37.65299987792968 L -129.27999877929688 -13.999999999999996 L -138.6999969482422 -13.999999999999996 L -138.6999969482422 -37.65299987792968 L -138.6999969482422 -43.976001739501946 L -138.6999969482422 -69.99999999999999 L -129.27999877929688 -69.99999999999999 L -97.95600128173828 -69.99999999999999 L -96.01200103759766 -69.99999999999999 L -91.02400207519531 -69.99999999999999 L -70.46499633789062 -69.99999999999999 L -65.447998046875 -69.7990036010742 L -60.76300048828125 -69.19699859619139 L -56.40999984741211 -68.19400024414061 L -52.430999755859375 -66.83899688720702 L -49.74897384643555 -65.53600311279295 L -49.152000427246094 -65.24597167968749 L -48.86800003051758 -65.10800170898436 L -46.73100280761719 -63.67699813842772 L -45.720001220703125 -62.999999999999986 L -43.00299835205078 -60.48500061035155 L -40.736000061035156 -57.60599899291991 L -38.91600036621094 -54.36299896240233 L -38.05099868774414 -52.09000778198241 L -38.05099868774414 -53.187980651855455 L -38.05099868774414 -63.67699813842772 L -38.05099868774414 -65.53600311279295 L -38.05099868774414 -69.99999999999999 L -36.44900131225586 -69.99999999999999 L -19.958999633789062 -69.99999999999999 L -5.297999858856201 -68.23100280761717 L -0.8298667669296265 -65.53600311279295 L 0 -65.0354537963867 L 2.2522332668304443 -63.67699813842772 L 3.499000072479248 -62.92499923706053 L 6.431000232696533 -54.08100128173827 L 4.795000076293945 -47.51300048828124 L 0 -42.606670379638665 L -0.11500000208616257 -42.48899841308593 L -8.29699993133545 -39.00799942016601 L -7.203322887420654 -37.65299987792968 L -3.2604358196258545 -32.76800155639648 L 0.7879999876022339 -27.752231597900384 L 7.127478122711182 -19.898000717163082 L 11.819999694824219 -19.898000717163082 L 11.819999694824219 -19.958000183105465 L 16.384000778198242 -19.958000183105465 L 26.125444412231445 -19.958000183105465 L 27.57285499572754 -19.958000183105465 L 28.277000427246094 -19.9109992980957 L 28.87211036682129 -19.898000717163082 L 30.364944458007812 -19.898000717163082 L 30.700000762939453 -19.9155158996582 L 32.768001556396484 -20.02363014221191 L 34.707000732421875 -20.124999999999996 L 38.584999084472656 -20.874999999999996 L 41.55799865722656 -22.124999999999996 L 43.61800003051758 -23.870000839233395 L 44.854000091552734 -26.0300006866455 L 45.26599884033203 -28.604000091552727 L 45.19300079345703 -29.896999359130852 L 44.974998474121094 -31.068000793457024 L 44.61199951171875 -32.11800003051757 L 44.202964782714844 -32.76800155639648 L 44.00600051879883 -33.081001281738274 L 43.15800094604492 -33.99700164794921 L 42.06700134277344 -34.86299896240234 L 40.72600173950195 -35.69200134277343 L 39.125999450683594 -36.498001098632805 L 37.268001556396484 -37.27799987792968 L 36.244197845458984 -37.65299987792968 L 35.10300064086914 -38.070999145507805 L 32.768001556396484 -38.851184844970696 L 32.58300018310547 -38.91299819946288 L 29.707000732421875 -39.80400085449218 L 26.92799949645996 -40.70700073242187 L 24.406999588012695 -41.658000946044915 L 22.145000457763672 -42.65900039672851 L 20.132999420166016 -43.756999969482415 L 18.36400032043457 -44.92800140380859 L 16.836999893188477 -46.17300033569335 L 15.553000450134277 -47.51499938964843 L 14.51099967956543 -48.97900009155272 L 14.423736572265625 -49.15200042724608 L 13.711000442504883 -50.56499862670897 L 13.185999870300293 -52.284999847412095 L 12.871000289916992 -54.15200042724608 L 12.765999794006348 -56.16500091552733 L 12.9350004196167 -58.25099945068358 L 13.444000244140625 -60.19100189208983 L 14.291999816894531 -61.984001159667955 L 15.496000289916992 -63.61299896240233 L 15.561460494995117 -63.67699813842772 L 16.384000778198242 -64.48118591308592 L 16.975000381469727 -65.05899810791014 L 17.637060165405273 -65.53600311279295 L 18.72800064086914 -66.32199859619139 L 20.780000686645508 -67.43199920654295 L 23.058000564575195 -68.3470001220703 L 25.562000274658203 -69.06700134277342 L 28.316999435424805 -69.58499908447264 L 31.25 -69.89600372314452 L 34.36000061035156 -69.99999999999999 L 38.11600112915039 -69.90200042724608 L 41.63100051879883 -69.61000061035155 L 44.90299987792969 -69.1220016479492 L 47.900001525878906 -68.5179977416992 L 50.6870002746582 -67.80400085449217 L 53.263999938964844 -66.98000335693358 L 52.45204544067383 -65.53600311279295 L 52.13269805908203 -64.96806335449217 L 51.40673828125 -63.67699813842772 L 51.22075271606445 -63.34624099731444 L 50.75116729736328 -62.51111984252928 L 50.38971710205078 -61.86830902099608 L 50.148502349853516 -61.439323425292955 L 50.04636001586914 -61.25767517089842 L 49.992000579833984 -61.16099929809569 L 47.762001037597656 -61.861999511718736 L 45.3390007019043 -62.50299835205077 L 42.72100067138672 -63.08200073242186 L 40.02299880981445 -63.508998870849595 L 38.216835021972656 -63.67699813842772 L 37.2599983215332 -63.76599884033202 L 34.43299865722656 -63.85100173950194 L 32.768001556396484 -63.74591827392577 L 31.676000595092773 -63.67699813842772 L 30.756999969482422 -63.61899948120116 L 27.679000854492188 -62.92399978637694 L 25.198999404907227 -61.76499938964842 L 23.381000518798828 -60.20299911499022 L 22.290000915527344 -58.29999923706053 L 21.927000045776367 -56.05500030517577 L 22.007999420166016 -54.72499847412108 L 22.25 -53.51699829101561 L 22.65399932861328 -52.43099975585936 L 23.243999481201172 -51.412998199462876 L 24.042999267578125 -50.47900009155272 L 25.05299949645996 -49.631000518798814 L 25.800891876220703 -49.15200042724608 L 26.33799934387207 -48.80799865722655 L 27.864999771118164 -48.02099990844725 L 29.634000778198242 -47.27099990844726 L 31.628999710083008 -46.520000457763665 L 32.768001556396484 -46.13077163696288 L 33.93199920654297 -45.73300170898437 L 36.54100036621094 -44.9099998474121 L 39.37699890136719 -44.01900100708007 L 41.970001220703125 -43.10400009155273 L 44.32099914550781 -42.16500091552734 L 46.42900085449219 -41.17599868774413 L 48.29600143432617 -40.11500167846679 L 49.152000427246094 -39.51638031005859 L 49.91899871826172 -38.97999954223632 L 51.30099868774414 -37.717998504638665 L 51.354923248291016 -37.65299987792968 L 52.439998626708984 -36.34500122070312 L 53.33700180053711 -34.86299896240234 L 53.983001708984375 -33.19100189208984 L 54.070953369140625 -32.76800155639648 L 54.37099838256836 -31.325000762939446 L 54.5 -29.263000488281243 L 54.305999755859375 -26.962999343872063 L 53.7239990234375 -24.822000503540032 L 52.755001068115234 -22.839000701904293 L 51.470001220703125 -21.034000396728512 L 49.84700012207031 -19.423000335693356 L 49.152000427246094 -18.92201995849609 L 47.88399887084961 -18.007999420166012 L 47.44999694824219 -17.77341270446777 L 45.92403793334961 -16.948608398437496 L 45.63800048828125 -16.794000625610348 L 44.59203338623047 -16.38400077819824 L 43.069000244140625 -15.78699970245361 L 40.176998138427734 -14.987999916076657 L 37.04199981689453 -14.439000129699703 L 33.64899826049805 -14.109999656677243 L 32.768001556396484 -14.083463668823239 L 30.700000762939453 -14.021174430847164 L 30.700000762939453 -13.999999999999996 L 29.996999740600586 -13.999999999999996 L 27.569154739379883 -13.999999999999996 L 25.635587692260742 -13.999999999999996 L 23.873056411743164 -13.999999999999996 L 21.586013793945312 -13.999999999999996 L 16.384000778198242 -13.999999999999996 L 11.887999534606934 -13.999999999999996 L 11.819999694824219 -13.999999999999996 L 0.7490000128746033 -13.999999999999996 M -64.48500061035156 -25.479000091552727 L -65.53600311279297 -25.13551712036132 L -67.3489990234375 -24.542999267578118 L -70.49400329589844 -23.896999359130856 L -71.66534423828125 -23.763093948364254 L -73.88800048828125 -23.50900077819824 L -77.52799987792969 -23.381000518798825 L -78.52949523925781 -23.381000518798825 L -81.6050033569336 -23.381000518798825 L -81.6050033569336 -20.04000091552734 L -73.45600128173828 -20.04000091552734 L -65.53600311279297 -20.647222518920895 L -65.26499938964844 -20.66799926757812 L -58.5369987487793 -22.54899978637695 L -57.13963317871094 -23.381000518798825 L -55.85990905761719 -24.14295578002929 L -53.29999923706055 -25.667137145996087 L -53.27000045776367 -25.684999465942376 L -49.49100112915039 -30.013000488281243 L -48.36171340942383 -32.76800155639648 L -47.222999572753906 -35.546001434326165 L -46.98652648925781 -37.65299987792968 L -46.46699905395508 -42.28200149536132 L -46.650001525878906 -45.83900070190429 L -47.198001861572266 -49.05599975585936 L -47.228477478027344 -49.15200042724608 L -48.11199951171875 -51.935001373291 L -49.152000427246094 -53.95872116088866 L -49.42399978637695 -54.48799896240233 L -51.069000244140625 -56.728000640869126 L -53.04600143432617 -58.65299987792967 L -53.29999923706055 -58.834316253662095 L -55.31399917602539 -60.271999359130845 L -56.003257751464844 -60.61899948120116 L -57.93000030517578 -61.58900070190428 L -60.895999908447266 -62.604999542236314 L -64.12699890136719 -63.32600021362303 L -65.53600311279297 -63.49961853027342 L -66.97553253173828 -63.67699813842772 L -67.64099884033203 -63.758998870849595 L -71.43699645996094 -63.90299987792967 L -81.6050033569336 -63.90299987792967 L -81.6050033569336 -63.67699813842772 L -81.6050033569336 -60.61899948120116 L -76.18399810791016 -60.61899948120116 L -72.8239974975586 -60.48600006103514 L -69.67500305175781 -60.085998535156236 L -66.74800109863281 -59.41799926757811 L -65.53600311279297 -59.01008224487303 L -64.06800079345703 -58.51599884033202 L -61.66400146484375 -57.36100006103514 L -59.53900146484375 -55.953998565673814 L -57.707000732421875 -54.276000976562486 L -56.17900085449219 -52.35800170898436 L -54.95600128173828 -50.20100021362303 L -54.552101135253906 -49.15200042724608 L -54.03499984741211 -47.80899810791015 L -53.48400115966797 -45.1860008239746 L -53.29999923706055 -42.33499908447265 L -53.483001708984375 -39.32699966430663 L -53.81950759887695 -37.65299987792968 L -54.03499984741211 -36.581001281738274 L -54.95600128173828 -34.097000122070305 L -55.70341491699219 -32.76800155639648 L -56.21799850463867 -31.853000640869134 L -57.79600143432617 -29.87199974060058 L -59.68899917602539 -28.156999588012688 L -61.930999755859375 -26.684000015258782 L -64.48500061035156 -25.479000091552727 M -77.8010025024414 -32.53699874877929 L -79.56600189208984 -32.47399902343749 L -81.6050033569336 -32.47399902343749 L -81.6050033569336 -27.731000900268548 L -78.19400024414062 -27.731000900268548 L -72.78700256347656 -28.13999938964843 L -68.375 -29.36100006103515 L -65.53600311279297 -31.032892227172844 L -64.93299865722656 -31.388000488281243 L -63.714542388916016 -32.76800155639648 L -62.45899963378906 -34.18999862670898 L -61.02354431152344 -37.65299987792968 L -60.96799850463867 -37.78699874877929 L -60.46900177001953 -42.18999862670898 L -60.5890007019043 -44.511001586914055 L -60.95100021362305 -46.61100006103515 L -61.551998138427734 -48.48500061035155 L -61.898582458496094 -49.15200042724608 L -62.41299819946289 -50.14199829101561 L -63.49100112915039 -51.591999053955064 L -64.78299713134766 -52.837001800537095 L -65.53600311279297 -53.36817169189452 L -66.26300048828125 -53.881000518798814 L -67.29900360107422 -54.396877288818345 L -67.97000122070312 -54.73099899291991 L -69.90899658203125 -55.38899993896483 L -72.02799987792969 -55.85599899291991 L -74.33799743652344 -56.138000488281236 L -76.84400177001953 -56.2319984436035 L -81.6050033569336 -56.2319984436035 L -81.6050033569336 -51.526000976562486 L -78.94200134277344 -51.526000976562486 L -77.2959976196289 -51.45999908447264 L -75.70999908447266 -51.25699996948241 L -74.2229995727539 -50.914001464843736 L -72.84700012207031 -50.444999694824205 L -71.59700012207031 -49.83800125122069 L -70.5726089477539 -49.15200042724608 L -70.48600006103516 -49.09400177001952 L -69.53199768066406 -48.210998535156236 L -68.74700164794922 -47.21400070190429 L -68.12699890136719 -46.10900115966796 L -67.66400146484375 -44.89300155639648 L -67.38999938964844 -43.57300186157226 L -67.29900360107422 -42.15700149536132 L -67.37144470214844 -40.95999908447265 L -67.38899993896484 -40.669998168945305 L -67.66200256347656 -39.294998168945305 L -68.1240005493164 -38.035999298095696 L -68.33695983886719 -37.65299987792968 L -68.76399993896484 -36.884998321533196 L -69.57499694824219 -35.855998992919915 L -70.55899810791016 -34.95500183105468 L -71.72599792480469 -34.180000305175774 L -73.04900360107422 -33.54800033569335 L -73.72799682617188 -33.3238182067871 L -74.52100372314453 -33.062000274658196 L -75.93843841552734 -32.76800155639648 L -76.11199951171875 -32.73199844360351 L -77.8010025024414 -32.53699874877929 M -4.044000148773193 -50.38600158691405 L -3.5869998931884766 -53.74200057983397 L -4.034999847412109 -57.01599884033202 L -5.38100004196167 -59.61299896240233 L -7.624000072479248 -61.532001495361314 L -10.86400032043457 -62.848999023437486 L -15.199999809265137 -63.63999938964842 L -15.964198112487793 -63.67699813842772 L -20.631999969482422 -63.90299987792967 L -28.631999969482422 -63.90299987792967 L -28.631999969482422 -63.67699813842772 L -28.631999969482422 -49.15200042724608 L -28.631999969482422 -43.18500137329101 L -21.741741180419922 -43.18500137329101 L -20.408000946044922 -43.18500137329101 L -15.140999794006348 -43.46099853515624 L -12.334053993225098 -44.00966644287109 L -10.904999732971191 -44.28900146484374 L -7.698999881744385 -45.66899871826171 L -5.414000034332275 -47.69499969482421 L -4.672235012054443 -49.15200042724608 L -4.044000148773193 -50.38600158691405 M -81.19499969482422 -40.95999908447265 L -81.19499969482422 -37.65299987792968 L -81.19499969482422 -36.153999328613274 L -79.95500183105469 -36.153999328613274 L -77.64800262451172 -36.331001281738274 L -75.9010009765625 -36.81900024414062 L -74.58300018310547 -37.60400009155273 L -74.5401840209961 -37.65299987792968 L -73.72799682617188 -38.58253860473632 L -73.62100219726562 -38.70500183105468 L -73.01300048828125 -40.18899917602538 L -72.92662048339844 -40.95999908447265 L -72.7979965209961 -42.10800170898437 L -72.8489990234375 -43.10499954223632 L -73.00299835205078 -44.00600051879882 L -73.25 -44.7849998474121 L -73.59400177001953 -45.45500183105468 L -73.72799682617188 -45.63769912719726 L -74.01499938964844 -46.028999328613274 L -74.51000213623047 -46.509998321533196 L -75.06600189208984 -46.90700149536132 L -75.7040023803711 -47.22800064086913 L -76.45099639892578 -47.48400115966796 L -77.29199981689453 -47.67200088500976 L -78.23200225830078 -47.78799819946288 L -79.3030014038086 -47.82899856567382 L -81.19499969482422 -47.82899856567382 L -81.19499969482422 -40.95999908447265 z" fill="none" stroke="rgb(0,0,0)" stroke-width="0.55mm" />
</svg>